<?xml version="1.0" encoding="utf-8"?>
<!-- Generator: Adobe Illustrator 24.0.0, SVG Export Plug-In . SVG Version: 6.00 Build 0)  -->
<svg version="1.1" id="Layer_1" xmlns="http://www.w3.org/2000/svg" xmlns:xlink="http://www.w3.org/1999/xlink" x="0px" y="0px"
	 viewBox="0 0 40 30" style="enable-background:new 0 0 40 30;" xml:space="preserve">
<style type="text/css">
	.st0{fill:#333333;}
	.st1{fill:#BA000C;}
</style>
<g>
	<circle class="st0" cx="5" cy="2" r="2"/>
	<polygon class="st0" points="8,5 5.75,5 5.75,6 5.75,6.03 5.74,6.06 5.24,8.06 5,9.03 4.76,8.06 4.26,6.06 4.25,6.03 4.25,6 
		4.25,5 2,5 0,10 10,10 	"/>
	<polygon class="st0" points="5,8 5.5,6 5.5,5 4.5,5 4.5,6 	"/>
</g>
<g>
	<circle class="st1" cx="15" cy="2" r="2"/>
	<polygon class="st1" points="18,5 15.75,5 15.75,6 15.75,6.03 15.74,6.06 15.24,8.06 15,9.03 14.76,8.06 14.26,6.06 14.25,6.03 
		14.25,6 14.25,5 12,5 10,10 20,10 	"/>
	<polygon class="st1" points="15,8 15.5,6 15.5,5 14.5,5 14.5,6 	"/>
</g>
<g>
	<polygon class="st1" points="35,1.21 30,3.21 35,5.21 40,3.21 	"/>
	<polygon class="st1" points="32.04,4.21 35.04,5.41 38.04,4.21 38,7.79 35,8.79 32,7.79 	"/>
</g>
<g>
	<polygon class="st0" points="25,1.21 20,3.21 25,5.21 30,3.21 	"/>
	<polygon class="st0" points="22.04,4.21 25.04,5.41 28.04,4.21 28,7.79 25,8.79 22,7.79 	"/>
</g>
<g>
	<path class="st0" d="M9.56,10.78c-0.64,0.36-1.9,1.22-2.08,2.64c-0.29,2.25-1.2,3.32-3.25,3.83c-1.35,0.34-1.85,1.69-2.02,2.38
		c0,0,0,0,0,0c1.35,1.01,4-0.24,5.93-2.79C9.86,14.56,10.41,12.02,9.56,10.78z"/>
	<path class="st0" d="M4.11,16.77c1.86-0.46,2.61-1.36,2.87-3.41c0.2-1.58,1.49-2.53,2.23-2.96c-0.01-0.01-0.01-0.02-0.02-0.03
		c-1.35-1.01-4,0.24-5.93,2.79c-1.7,2.25-2.26,4.76-1.45,6.02C2.07,18.35,2.68,17.12,4.11,16.77z"/>
</g>
<g>
	<path class="st1" d="M19.61,10.78c-0.64,0.36-1.9,1.22-2.08,2.64c-0.29,2.25-1.2,3.32-3.25,3.83c-1.35,0.34-1.85,1.69-2.02,2.38
		c0,0,0,0,0,0c1.35,1.01,4-0.24,5.93-2.79C19.91,14.56,20.46,12.02,19.61,10.78z"/>
	<path class="st1" d="M14.16,16.77c1.86-0.46,2.61-1.36,2.87-3.41c0.2-1.58,1.49-2.53,2.23-2.96c-0.01-0.01-0.01-0.02-0.02-0.03
		c-1.35-1.01-4,0.24-5.93,2.79c-1.7,2.25-2.26,4.76-1.45,6.02C12.12,18.35,12.73,17.12,14.16,16.77z"/>
</g>
<path class="st0" d="M25,15c1.38,0,2.5-1.12,2.5-2.5S26.38,10,25,10s-2.5,1.12-2.5,2.5S23.62,15,25,15z M26.75,15.63h-0.33
	c-0.43,0.2-0.92,0.31-1.42,0.31s-0.99-0.11-1.42-0.31h-0.33c-1.45,0-2.63,1.18-2.63,2.63v0.81c0,0.52,0.42,0.94,0.94,0.94h6.88
	c0.52,0,0.94-0.42,0.94-0.94v-0.81C29.38,16.8,28.2,15.63,26.75,15.63z"/>
<circle class="st1" cx="34.99" cy="14.99" r="4.99"/>
<rect y="20" class="st0" width="10" height="10"/>
<polygon class="st0" points="17.5,20 12.5,20 10,25 12.5,30 17.5,30 20,25 "/>
<polygon class="st0" points="25,20 26.55,23.29 30,23.82 27.5,26.38 28.09,30 25,28.29 21.91,30 22.5,26.38 20,23.82 23.45,23.29 
	"/>
<path class="st0" d="M36.98,29.98h-3.97c-1.66,0-3.01-1.35-3.01-3.01v-3.97c0-1.66,1.35-3.01,3.01-3.01h3.97
	c1.66,0,3.01,1.35,3.01,3.01v3.97C39.98,28.64,38.64,29.98,36.98,29.98z"/>
</svg>
